<svg width="56" height="50" viewBox="0 0 56 50" fill="none" xmlns="http://www.w3.org/2000/svg">
<path d="M6 0.000976562C4.4087 0.000976563 2.88258 0.683488 1.75736 1.89837C0.632141 3.11325 0 4.76098 0 6.47907L0 32.4239C0.00793057 34.1363 0.643571 35.7758 1.76793 36.9836C2.89229 38.1915 4.41389 38.8696 6 38.8696H22.5C22.8978 38.8696 23.2794 38.6989 23.5607 38.3952C23.842 38.0915 24 37.6796 24 37.25C24 36.8205 23.842 36.4086 23.5607 36.1049C23.2794 35.8011 22.8978 35.6305 22.5 35.6305H6C5.33963 35.6306 4.69769 35.3954 4.17372 34.9615C3.64975 34.5275 3.27304 33.919 3.102 33.2304L20.022 21.9876L24 24.5627L45 10.9587V21.0548C45 21.4843 45.158 21.8963 45.4393 22.2C45.7206 22.5037 46.1022 22.6743 46.5 22.6743C46.8978 22.6743 47.2794 22.5037 47.5607 22.2C47.842 21.8963 48 21.4843 48 21.0548V6.47907C48 4.76098 47.3679 3.11325 46.2426 1.89837C45.1174 0.683488 43.5913 0.000976563 42 0.000976562H6ZM17.124 20.109L3 29.4925V10.9587L17.124 20.109ZM3 7.18195V6.47907C3 5.62002 3.31607 4.79616 3.87868 4.18872C4.44129 3.58128 5.20435 3.24003 6 3.24003H42C42.7957 3.24003 43.5587 3.58128 44.1213 4.18872C44.6839 4.79616 45 5.62002 45 6.47907V7.18195L24 20.786L3 7.18195Z" fill="white"/>
<path d="M56 34.705C56 38.6321 54.3143 42.3983 51.3137 45.1752C48.3131 47.9521 44.2435 49.5121 40 49.5121C35.7565 49.5121 31.6869 47.9521 28.6863 45.1752C25.6857 42.3983 24 38.6321 24 34.705C24 30.7779 25.6857 27.0117 28.6863 24.2348C31.6869 21.458 35.7565 19.8979 40 19.8979C44.2435 19.8979 48.3131 21.458 51.3137 24.2348C54.3143 27.0117 56 30.7779 56 34.705ZM46.8891 27.6019C46.6316 27.459 46.3462 27.3646 46.0492 27.3238C45.7522 27.2831 45.4495 27.2969 45.1583 27.3645C44.867 27.4321 44.5931 27.5521 44.352 27.7176C44.1109 27.8832 43.9074 28.0911 43.7531 28.3295L38.4046 36.5792L35.904 34.265C35.4748 33.8679 34.8927 33.6447 34.2857 33.6447C33.6787 33.6447 33.0966 33.8679 32.6674 34.265C32.2382 34.6622 31.9971 35.201 31.9971 35.7627C31.9971 36.3244 32.2382 36.8631 32.6674 37.2603L36.2057 40.5306C36.574 40.872 37.0216 41.1313 37.5144 41.2886C38.0073 41.446 38.5324 41.4972 39.0498 41.4385C39.5673 41.3797 40.0635 41.2126 40.5006 40.9497C40.9378 40.6868 41.3044 40.3351 41.5726 39.9214L47.6754 30.504C47.8298 30.2657 47.9319 30.0016 47.9759 29.7267C48.0199 29.4519 48.005 29.1717 47.9319 28.9022C47.8589 28.6327 47.7292 28.3792 47.5503 28.156C47.3714 27.9329 47.1467 27.7446 46.8891 27.6019Z" fill="white"/>
</svg>
