<svg width="57" height="43" viewBox="0 0 57 43" fill="none" xmlns="http://www.w3.org/2000/svg">
<path d="M42.6168 1.38315C42.739 1.50507 42.836 1.64991 42.9021 1.80937C42.9683 1.96882 43.0024 2.13977 43.0024 2.3124C43.0024 2.48504 42.9683 2.65599 42.9021 2.81544C42.836 2.9749 42.739 3.11973 42.6168 3.24165L31.7309 14.1249H39.0625C39.4106 14.1249 39.7445 14.2632 39.9906 14.5093C40.2367 14.7555 40.375 15.0893 40.375 15.4374C40.375 15.7855 40.2367 16.1193 39.9906 16.3655C39.7445 16.6116 39.4106 16.7499 39.0625 16.7499H28.5625C28.2144 16.7499 27.8806 16.6116 27.6344 16.3655C27.3883 16.1193 27.25 15.7855 27.25 15.4374V4.9374C27.25 4.58931 27.3883 4.25547 27.6344 4.00933C27.8806 3.76319 28.2144 3.6249 28.5625 3.6249C28.9106 3.6249 29.2445 3.76319 29.4906 4.00933C29.7367 4.25547 29.875 4.58931 29.875 4.9374V12.269L40.7583 1.38315C40.8802 1.26093 41.025 1.16395 41.1845 1.09778C41.3439 1.03162 41.5149 0.997559 41.6875 0.997559C41.8602 0.997559 42.0311 1.03162 42.1906 1.09778C42.35 1.16395 42.4948 1.26093 42.6168 1.38315ZM10.5918 4.4859C10.4368 4.28657 10.2412 4.12248 10.0179 4.00455C9.79469 3.88661 9.5489 3.81753 9.2969 3.80189C9.0449 3.78625 8.79245 3.8244 8.55633 3.91382C8.32021 4.00325 8.10581 4.14188 7.92739 4.32053L5.21314 7.0374C3.94527 8.3079 3.47802 10.106 4.03189 11.6837C6.33071 18.2136 10.0702 24.1422 14.9729 29.0297C19.8604 33.9323 25.789 37.6718 32.3189 39.9707C33.8965 40.5245 35.6946 40.0573 36.9651 38.7894L39.6794 36.0752C39.858 35.8967 39.9967 35.6823 40.0861 35.4462C40.1755 35.2101 40.2137 34.9576 40.198 34.7056C40.1824 34.4536 40.1133 34.2078 39.9954 33.9846C39.8774 33.7613 39.7134 33.5657 39.514 33.4108L33.4581 28.7015C33.2452 28.5364 32.9975 28.4217 32.7337 28.3662C32.47 28.3108 32.1971 28.3159 31.9356 28.3813L26.1869 29.8172C25.4196 30.0089 24.6156 29.9988 23.8534 29.7876C23.0911 29.5765 22.3966 29.1716 21.8373 28.6123L15.3903 22.1627C14.8305 21.6036 14.4251 20.9092 14.2135 20.1469C14.0019 19.3847 13.9913 18.5806 14.1828 17.813L15.6213 12.0643C15.6866 11.8028 15.6918 11.5299 15.6363 11.2662C15.5808 11.0024 15.4662 10.7547 15.301 10.5418L10.5918 4.4859ZM5.94552 2.34128C6.40488 1.88177 6.95674 1.52525 7.56446 1.29538C8.17217 1.06551 8.82184 0.967556 9.47032 1.00802C10.1188 1.04849 10.7512 1.22645 11.3257 1.53009C11.9001 1.83373 12.4033 2.2561 12.802 2.76915L17.5113 8.8224C18.3749 9.93278 18.6794 11.3792 18.3381 12.7442L16.9023 18.4929C16.828 18.7907 16.832 19.1025 16.9139 19.3983C16.9958 19.694 17.1527 19.9636 17.3695 20.1808L23.8191 26.6304C24.0366 26.8476 24.3066 27.0048 24.6028 27.0867C24.8991 27.1686 25.2115 27.1724 25.5096 27.0977L31.2558 25.6618C31.9294 25.4934 32.6325 25.4803 33.3119 25.6235C33.9913 25.7668 34.6292 26.0626 35.1775 26.4887L41.2308 31.1979C43.4069 32.891 43.6064 36.1067 41.6586 38.0518L38.9444 40.766C37.0019 42.7085 34.0986 43.5617 31.3923 42.6088C24.4654 40.1715 18.1761 36.206 12.991 31.0063C7.79165 25.8219 3.82611 19.5336 1.38852 12.6077C0.438266 9.9039 1.29139 6.99803 3.23389 5.05553L5.94814 2.34128H5.94552Z" fill="white"/>
</svg>
