<svg width="42" height="42" viewBox="0 0 42 42" fill="none" xmlns="http://www.w3.org/2000/svg">
<g clip-path="url(#clip0_12_208)">
<path d="M41.6168 0.383277C41.739 0.505197 41.836 0.650033 41.9021 0.809489C41.9683 0.968945 42.0024 1.13989 42.0024 1.31253C42.0024 1.48517 41.9683 1.65611 41.9021 1.81557C41.836 1.97502 41.739 2.11986 41.6168 2.24178L30.7309 13.125H38.0625C38.4106 13.125 38.7445 13.2633 38.9906 13.5094C39.2367 13.7556 39.375 14.0894 39.375 14.4375C39.375 14.7856 39.2367 15.1195 38.9906 15.3656C38.7445 15.6117 38.4106 15.75 38.0625 15.75H27.5625C27.2144 15.75 26.8806 15.6117 26.6344 15.3656C26.3883 15.1195 26.25 14.7856 26.25 14.4375V3.93753C26.25 3.58943 26.3883 3.25559 26.6344 3.00945C26.8806 2.76331 27.2144 2.62503 27.5625 2.62503C27.9106 2.62503 28.2445 2.76331 28.4906 3.00945C28.7367 3.25559 28.875 3.58943 28.875 3.93753V11.2692L39.7583 0.383277C39.8802 0.261048 40.025 0.164073 40.1845 0.0979065C40.3439 0.0317395 40.5149 -0.00231934 40.6875 -0.00231934C40.8602 -0.00231934 41.0311 0.0317395 41.1906 0.0979065C41.35 0.164073 41.4948 0.261048 41.6168 0.383277ZM9.59177 3.48603C9.4368 3.28669 9.2412 3.1226 9.01795 3.00467C8.79469 2.88673 8.5489 2.81765 8.2969 2.80201C8.0449 2.78637 7.79245 2.82453 7.55633 2.91395C7.32021 3.00337 7.10581 3.14201 6.92739 3.32065L4.21314 6.03753C2.94527 7.30803 2.47802 9.10615 3.03189 10.6838C5.33071 17.2137 9.07016 23.1423 13.9729 28.0298C18.8604 32.9324 24.789 36.6719 31.3189 38.9708C32.8965 39.5247 34.6946 39.0574 35.9651 37.7895L38.6794 35.0753C38.858 34.8969 38.9967 34.6825 39.0861 34.4463C39.1755 34.2102 39.2137 33.9578 39.198 33.7058C39.1824 33.4538 39.1133 33.208 38.9954 32.9847C38.8774 32.7615 38.7134 32.5659 38.514 32.4109L32.4581 27.7017C32.2452 27.5365 31.9975 27.4218 31.7337 27.3664C31.47 27.3109 31.1971 27.316 30.9356 27.3814L25.1869 28.8173C24.4195 29.0091 23.6156 28.9989 22.8534 28.7877C22.0911 28.5766 21.3966 28.1717 20.8373 27.6124L14.3903 21.1628C13.8305 20.6038 13.4251 19.9093 13.2135 19.147C13.0019 18.3848 12.9913 17.5807 13.1828 16.8132L14.6213 11.0644C14.6866 10.8029 14.6918 10.53 14.6363 10.2663C14.5808 10.0026 14.4662 9.75487 14.301 9.5419L9.59177 3.48603ZM4.94552 1.3414C5.40488 0.881894 5.95674 0.525369 6.56446 0.2955C7.17217 0.0656311 7.82184 -0.0323216 8.47032 0.00814613C9.11879 0.0486139 9.75124 0.226576 10.3257 0.530216C10.9001 0.833856 11.4033 1.25622 11.802 1.76928L16.5113 7.82253C17.3749 8.9329 17.6794 10.3793 17.3381 11.7443L15.9023 17.493C15.828 17.7908 15.832 18.1027 15.9139 18.3984C15.9958 18.6942 16.1527 18.9637 16.3695 19.1809L22.8191 25.6305C23.0366 25.8478 23.3066 26.005 23.6028 26.0868C23.8991 26.1687 24.2115 26.1725 24.5096 26.0978L30.2558 24.6619C30.9294 24.4935 31.6325 24.4804 32.3119 24.6236C32.9913 24.7669 33.6292 25.0627 34.1775 25.4888L40.2308 30.198C42.4069 31.8912 42.6064 35.1068 40.6586 37.0519L37.9444 39.7662C36.0019 41.7087 33.0986 42.5618 30.3923 41.6089C23.4654 39.1717 17.1761 35.2061 11.991 30.0064C6.79165 24.8221 2.82611 18.5337 0.388515 11.6078C-0.561734 8.90403 0.291391 5.99815 2.23389 4.05565L4.94814 1.3414H4.94552Z" fill="#A06F7D"/>
</g>
<defs>
<clipPath id="clip0_12_208">
<rect width="42" height="42" fill="white"/>
</clipPath>
</defs>
</svg>
