<svg width="42" height="42" viewBox="0 0 42 42" fill="none" xmlns="http://www.w3.org/2000/svg">
<g clip-path="url(#clip0_12_303)">
<path d="M13 32.197H22.1219C26.8574 32.197 29.7029 29.8135 29.7029 25.9075C29.7029 23.0148 27.7053 20.878 24.7049 20.5682V20.3057C26.8889 19.9382 28.5951 17.8645 28.5951 15.5387C28.5951 12.1262 26.0883 10 21.9224 10H13V32.197ZM16.4466 19.4001V12.9243H21.1191C23.6733 12.9243 25.1669 14.1239 25.1669 16.1714C25.1669 18.2766 23.5814 19.4001 20.5364 19.4001H16.4466ZM16.4466 29.2754V22.1222H21.2294C24.4739 22.1222 26.1828 23.3376 26.1828 25.6608C26.1828 28.0128 24.5369 29.2754 21.4289 29.2754H16.4466Z" fill="white"/>
<path d="M0 10.5C0 7.71523 1.10625 5.04451 3.07538 3.07538C5.04451 1.10625 7.71523 0 10.5 0L31.5 0C34.2848 0 36.9555 1.10625 38.9246 3.07538C40.8938 5.04451 42 7.71523 42 10.5V31.5C42 34.2848 40.8938 36.9555 38.9246 38.9246C36.9555 40.8938 34.2848 42 31.5 42H10.5C7.71523 42 5.04451 40.8938 3.07538 38.9246C1.10625 36.9555 0 34.2848 0 31.5V10.5ZM10.5 2.625C8.41142 2.625 6.40838 3.45468 4.93153 4.93153C3.45468 6.40838 2.625 8.41142 2.625 10.5V31.5C2.625 33.5886 3.45468 35.5916 4.93153 37.0685C6.40838 38.5453 8.41142 39.375 10.5 39.375H31.5C33.5886 39.375 35.5916 38.5453 37.0685 37.0685C38.5453 35.5916 39.375 33.5886 39.375 31.5V10.5C39.375 8.41142 38.5453 6.40838 37.0685 4.93153C35.5916 3.45468 33.5886 2.625 31.5 2.625H10.5Z" fill="white"/>
</g>
<defs>
<clipPath id="clip0_12_303">
<rect width="42" height="42" fill="white"/>
</clipPath>
</defs>
</svg>
